<svg width="76" height="104" viewBox="0 0 76 104" fill="none" xmlns="http://www.w3.org/2000/svg">
<g clip-path="url(#clip0_4920_310761)">
<path d="M75.5069 50.0707C75.5069 50.0707 75.3867 43.9988 74.4256 40.3497C73.9451 38.5252 73.1942 36.9698 72.6836 36.0127C73.044 35.0854 73.4945 34.0086 74.0652 31.7653C75.1765 27.3086 75.3867 24.4372 75.2365 21.1769C75.1765 20.2496 74.9662 18.784 74.9662 18.784L73.885 19.3224C73.9451 17.8867 73.885 16.5706 73.8249 15.8228C73.5846 11.9643 72.2031 7.20851 72.2031 7.20851L70.8515 8.52459C70.8515 8.52459 69.8904 6.16163 69.0194 4.78573C67.7579 2.72189 65.0548 0 65.0548 0C65.0548 0 63.8835 4.72591 62.592 7.95628C62.3517 8.58441 61.8712 9.69111 61.5408 10.3791C60.4595 9.87058 59.3783 9.45183 58.4472 9.12281C57.5162 8.79379 56.6752 8.5545 56.1346 8.43486C56.1346 8.43486 55.1434 7.50762 54.5427 7.11878C54.3325 6.96923 54.1223 6.84958 53.882 6.70003L53.9421 6.10181C53.9421 4.66609 52.1099 2.27322 45.4723 1.22634C39.105 0.209376 36.3118 1.97412 35.651 2.66206L35.3507 3.67903C34.4196 3.88841 33.3984 4.27725 32.8278 4.48663C31.8366 4.48663 29.4639 4.48663 27.0311 4.78573C24.6584 5.11475 19.162 6.04199 18.6815 10.2893C18.5313 11.4858 19.0119 13.9983 19.102 14.5965C19.5225 17.3782 19.9429 18.5746 20.033 21.3863C20.0631 21.8349 20.0631 22.2836 20.033 22.7322C19.8228 22.7322 19.4924 22.7322 19.162 22.7322C18.6214 21.6854 18.0207 20.5787 17.5702 19.8907C15.8582 17.1389 13.8159 15.3742 12.134 14.1179C11.3531 13.5496 9.1305 11.6951 9.1305 11.6652C7.80898 10.1398 7.35846 9.48174 6.5175 7.89646C6.00691 6.96923 5.40622 5.41386 5.40622 5.41386C5.40622 5.41386 4.14477 6.99914 3.48401 8.13575C2.16249 10.4389 1.89218 10.5585 1.20138 14.5367C1.05121 15.434 1.08124 17.0193 1.02117 17.767L0.270311 17.3483C0.270311 17.3483 0 19.2028 0 21.7452C0 27.3086 1.35155 29.9408 1.86214 31.1073L1.17135 31.1671C1.17135 31.1671 2.07238 35.6238 4.05466 39.0037C4.74546 40.1703 7.59874 43.4006 7.86905 43.6997C7.65881 44.7466 7.50864 46.5413 7.44857 48.306C7.32843 53.1217 8.74005 56.0529 8.74005 56.0529L9.70116 55.694C9.70116 56.023 9.85133 58.9842 10.6022 60.9284C11.323 62.8128 13.2753 65.3552 13.2753 65.3552L14.2364 64.1588C15.0773 65.5047 16.0384 66.4021 17.42 67.5985C18.8317 68.8248 21.3846 70.2905 21.3846 70.2905L22.1955 68.7351C23.0365 71.5467 20.4235 78.1869 20.4235 78.1869L22.1955 79.1441L20.6938 83.5111L22.1054 84.4682L20.4235 89.8821L22.8563 91.0486C22.8563 91.0486 23.0065 94.3986 24.0276 96.612C24.6584 98.0178 26.1601 100.321 26.1601 100.321L27.812 99.3339C28.2625 99.9022 29.2536 101.069 29.8844 101.727C30.5451 102.415 32.7076 104 32.7076 104L35.5309 101.517C35.681 101.607 37.1828 102.415 37.8736 102.654C38.6545 102.923 41.718 103.731 41.718 103.731C41.718 103.731 42.1084 102.774 42.4688 102.175C42.7091 101.787 42.7091 101.966 43.0996 101.248C43.3999 101.398 44.331 101.757 45.1419 101.966C46.7037 102.415 49.2266 102.654 49.2266 102.654L49.4969 100.859C49.4969 100.859 49.7372 99.633 49.7973 99.4835C49.8874 99.5134 51.9598 100.441 51.9898 100.441L54.0622 101.368C54.0622 101.368 54.2424 101.039 54.5127 100.53C54.9632 100.829 55.5038 101.009 56.0745 101.009C57.4561 101.009 58.6274 100.022 58.8677 98.7058L60.3995 99.1245C60.3995 99.1245 61.0602 95.5352 61.1503 94.1892C61.3606 89.3437 60.5496 87.2499 60.3094 86.3825L61.5708 84.0495L59.3182 79.6526L60.85 77.17L61.1804 76.5418L63.8535 77.0204C63.8535 77.0204 66.1361 71.0981 66.8569 69.3034C67.5177 67.6882 67.788 65.9833 67.8781 64.7271C67.9081 64.2485 67.9682 63.7998 67.9682 63.4409C68.1784 63.2016 68.9894 62.1248 69.0795 61.9753L70.0105 63.4708C70.0105 63.4708 72.173 59.2534 72.6536 57.9672C73.1341 56.711 73.855 54.3779 74.0352 52.673C74.1553 51.5663 74.1553 50.5493 74.0952 49.652L75.5069 50.0707Z" fill="white"/>
<path d="M23.1562 77.0205L25.0184 78.0375L23.4265 82.5839L24.8081 83.5112L23.2163 88.6558L25.1685 89.5831L25.1385 92.1255C25.4088 94.8773 26.8805 97.1804 26.8805 97.1804L28.5925 96.1934C28.5925 96.1934 28.8027 96.8215 29.5836 97.8085C30.3645 98.7956 32.527 100.949 32.527 100.949L35.3202 98.5563C35.3202 98.5563 36.3714 99.334 37.0622 99.7228C37.753 100.112 40.4261 100.979 40.4261 100.979C40.4261 100.979 40.8766 100.471 41.2971 99.5135C41.6275 98.7956 42.2882 98.1675 42.2882 98.1675C42.2882 98.1675 43.3995 98.7059 43.9101 99.0349C44.4507 99.3938 47.2139 100.112 47.2139 100.112C47.2139 100.112 47.3641 98.8554 47.7545 97.988C48.175 97.1206 48.5655 96.7018 48.5655 96.7018C48.5655 96.7018 49.2863 97.0009 50.0972 97.1505C50.9382 97.3001 52.9505 98.3469 52.9505 98.3469C52.9505 98.3469 53.4311 97.3599 53.6713 96.7018C53.8816 96.1036 54.1219 95.1764 54.1219 95.1764C54.1219 95.1764 55.5335 95.4456 56.4345 95.655C57.3055 95.8643 58.4468 96.2532 58.4468 96.2532C58.4468 96.2532 59.0475 92.3947 58.627 89.9121C58.3567 88.4465 57.6659 86.0835 57.6659 86.0835L58.8072 83.9897L56.5246 79.5031L58.6871 75.9736L59.7383 73.8799L62.2312 74.3285C62.2312 74.3285 63.823 70.1709 64.5739 68.3763C65.6251 65.774 65.535 62.5138 65.535 62.5138C65.535 62.5138 65.5049 62.6633 66.8265 60.9584C68.148 59.2236 68.5384 56.6811 68.5384 56.6811L69.7098 58.5655C69.7098 58.5655 71.3617 55.2155 71.632 52.4039C71.9924 48.7249 71.0313 46.4217 71.0313 46.4217L72.9836 46.9302C72.9836 46.9302 72.8634 43.6699 72.0825 40.9181C71.3016 38.1663 69.9501 36.0427 69.9501 36.0427C69.9501 36.0427 70.761 34.6668 71.7521 30.7484C72.9535 25.873 72.8033 21.8649 72.8033 21.8649L71.1514 22.5828C71.1514 22.5828 71.602 18.6046 71.4818 16.3613C71.3617 14.1479 70.8811 11.6055 70.8811 11.6055L69.4395 12.9515C69.4395 12.9515 69.2292 11.3064 68.5084 9.06309C67.7876 6.81977 65.9855 4.54655 65.9855 4.54655C65.9855 4.54655 65.2346 7.4479 64.5739 9.15282C63.8831 10.9176 62.5015 13.6095 62.5015 13.6095C59.7984 11.6653 54.9628 10.5586 54.9628 10.5586C54.9628 10.5586 54.1519 9.6613 53.2809 9.06309C52.47 8.52469 51.3587 7.86665 51.3587 7.86665L51.5689 6.64031C51.5689 6.64031 51.3587 4.51664 45.1415 3.52958C39.3449 2.60235 37.6629 4.30726 37.6629 4.30726L37.4226 5.62334C37.4226 5.62334 36.5516 5.80281 35.9209 5.95236C34.6895 6.25147 33.3079 6.84969 33.3079 6.84969C33.3079 6.84969 21.5043 6.31129 21.0238 10.5586C20.8135 12.5327 21.234 13.0113 21.4142 14.2377C21.8347 17.1091 22.2552 18.3654 22.3753 21.2966C22.4354 23.2707 22.1651 25.7533 22.1651 25.7533C22.1651 25.7533 21.4142 25.3346 20.9036 25.185C20.4231 25.0654 19.6422 25.0355 19.6422 25.0355L20.303 26.6806L18.5309 26.6207C18.5309 26.6207 16.6087 22.7024 15.5875 21.0872C12.554 16.2716 8.4393 14.8658 7.38809 13.5796C6.33688 12.2935 5.25564 9.63139 5.25564 9.63139C5.25564 9.63139 4.11433 11.3064 3.4836 14.9256C2.85288 18.5448 3.4836 20.7881 3.4836 20.7881L2.31225 20.2497C2.31225 20.2497 2.16208 23.9587 2.64263 26.5908C3.12319 29.223 5.31571 32.7525 5.31571 32.7525L4.1744 32.902C4.1744 32.902 4.98533 35.923 6.12664 37.8373C7.23792 39.7217 10.4817 43.0119 10.4817 43.0119C10.4817 43.0119 9.82089 45.2851 9.73079 48.1566C9.64068 51.6262 10.3315 53.361 10.3315 53.361L12.0134 52.5834C12.0134 52.5834 11.623 54.707 11.8332 56.9204C12.0134 58.8945 13.5452 61.7062 13.5452 61.7062L15.137 59.9414C15.137 59.9414 15.6476 61.7959 16.2483 62.8428C17.4497 64.9964 20.7535 67.2098 20.7535 67.2098L21.8047 64.6673C21.8047 64.6673 24.3276 65.5647 24.4778 69.812C24.5378 72.175 23.1562 77.0205 23.1562 77.0205Z" fill="black"/>
<path d="M40.4564 6.43075C40.5465 5.92226 42.4987 5.86244 44.8114 6.25128C47.124 6.67003 48.9561 7.38789 48.866 7.89638C48.7759 8.40486 46.8237 8.46468 44.511 8.07584C42.1683 7.65709 40.3663 6.90932 40.4564 6.43075Z" fill="#CC0000"/>
<path d="M41.8685 19.7112C31.2964 17.8568 23.6676 14.4768 23.9079 11.3362C23.998 10.3492 25.5598 9.90049 27.6021 9.99022L25.4697 11.067C24.6287 12.9514 33.0684 16.8099 41.9586 18.3653C50.8489 19.9206 60.3698 19.5916 60.7603 17.3483L58.1473 14.776C60.1295 15.1648 62.5924 16.9894 62.5023 17.8568C62.0818 20.9675 52.4407 21.5657 41.8685 19.7112Z" fill="#CC0000"/>
<path fill-rule="evenodd" clip-rule="evenodd" d="M47.6045 45.8533L47.9949 44.1484L49.767 43.9988L50.5479 41.7256L51.9895 42.0247L53.2209 39.8412L54.4524 40.3796L55.894 37.9867L56.9152 38.1363L57.576 34.7863L58.477 34.547L58.8975 31.7354L59.7384 30.5688L61.2101 32.872L62.4115 32.7523L63.1924 35.0854L64.6941 35.534L64.4839 37.8671L65.8054 38.5251L65.475 41.1573L66.6164 42.1144L65.7153 44.2979L66.7065 45.9729L65.2648 47.8274L65.6252 50.5194L64.0334 50.9381L63.7631 53.3609H62.4115L61.6907 55.006L60.5794 52.7029C60.5794 52.7029 64.0334 50.0109 64.2436 44.5372C64.5139 37.4782 60.1589 34.0086 60.1589 34.0086C60.1589 34.0086 60.3091 36.551 58.1766 39.5122C55.864 42.6827 54.0018 42.8323 52.3499 43.9988C50.6981 45.1354 49.8571 46.5113 49.8571 46.5113L47.6045 45.8533Z" fill="white"/>
<path fill-rule="evenodd" clip-rule="evenodd" d="M59.2279 50.9681C61.3904 48.8444 62.5618 47.4087 62.6519 43.6997C62.7119 39.9908 61.06 37.4185 61.06 37.4185C61.06 37.4185 60.6095 39.0037 60.0388 39.8711C59.5283 40.6189 58.4771 41.5462 58.4771 41.5462C58.4771 41.5462 58.447 41.6957 58.2968 43.0417C58.1467 44.3578 57.0654 46.1225 57.0654 46.1225C57.0654 46.1225 59.1979 44.627 60.0689 43.5203C60.9399 42.4136 61.06 41.3069 61.06 41.3069C61.06 41.3069 61.6006 44.0287 60.7597 46.3319C59.9187 48.635 58.0866 49.8614 58.0866 49.8614L59.2279 50.9681Z" fill="white"/>
<path fill-rule="evenodd" clip-rule="evenodd" d="M34.5101 46.9599L33.8493 45.4345L31.8671 44.8362L30.7858 41.7255L28.9537 41.6059L26.9414 38.4054L25.6499 38.525L23.5775 36.0125L22.226 36.6407L19.4928 34.517L18.2013 35.5041L16.2191 34.3076L15.9788 36.3116L17.06 39.0036L16.0989 39.9009L16.9098 42.5331L15.8887 44.9858L16.9399 46.6907L16.3392 50.0706L17.7208 51.2372L18.3515 54.1385L19.8833 54.5273L20.7242 56.98L22.8567 57.3689L24.4485 59.2832L24.9591 56.5613C24.9591 56.5613 20.8744 55.0059 19.0723 49.8313C17.871 46.3916 19.0123 43.5501 19.3126 41.3367C19.5829 39.2728 18.7119 37.5978 18.7119 37.5978C18.7119 37.5978 21.3249 37.7175 24.4786 40.0505C27.6322 42.3835 27.9926 43.58 30.2752 45.8233C31.2063 46.7206 32.5578 47.6479 32.5578 47.6479L34.5101 46.9599Z" fill="white"/>
<path fill-rule="evenodd" clip-rule="evenodd" d="M25.6798 54.4677C23.0067 53.0619 21.5651 52.1047 20.4238 48.5752C19.8231 46.7208 20.0934 45.3449 20.7541 43.4007C21.2047 42.0846 21.0244 40.1404 21.0244 40.1404C21.0244 40.1404 22.4961 40.8882 23.3071 41.5462C23.9678 42.0846 24.8989 43.0716 24.8989 43.0716C24.8989 43.0716 24.4784 44.0587 24.5685 45.3748C24.7487 47.7676 26.4907 49.2333 26.4907 49.2333C26.4907 49.2333 24.4784 47.977 23.6074 46.8105C22.2258 44.956 22.346 43.4605 22.346 43.4605C22.346 43.4605 20.8142 47.319 22.8866 50.3101C24.2982 52.344 26.2505 53.1516 26.2505 53.1516L25.6798 54.4677Z" fill="white"/>
<path fill-rule="evenodd" clip-rule="evenodd" d="M41.6581 46.4216C41.6581 46.4216 40.9974 48.2462 36.6123 48.9341C33.699 49.3828 31.5665 50.1605 29.9747 52.1944L31.7467 52.4038L28.4429 54.3779C26.8811 57.369 27.662 60.1507 27.662 60.1507C27.662 60.1507 28.3528 59.4029 28.8934 59.0141C29.5542 58.5355 30.6955 57.9672 30.6955 57.9672C30.6955 57.9672 29.8545 59.3431 29.2238 61.0181C28.5931 62.6931 28.3528 65.2355 28.8334 67.1199C29.3139 68.9744 29.4941 71.0981 31.4764 72.4142C34.0293 74.0892 36.4621 73.4909 38.955 70.4999C40.9073 68.1369 45.5326 66.0132 50.3381 66.103L49.6473 67.2097C51.4494 67.5387 54.0624 68.5257 55.1737 69.1838C57.7867 70.8289 60.3997 70.9485 60.3997 70.9485C60.3997 70.9485 63.1328 65.744 62.2919 62.394C61.9615 61.048 61.2407 59.2235 59.8591 57.6382C58.6276 56.2324 56.0146 54.7668 56.0146 54.7668L58.8379 54.677C58.8379 54.677 58.6877 53.3609 56.1948 51.2373C53.3115 48.7846 51.149 48.994 47.8452 48.4257C43.4602 47.6779 41.6581 46.4216 41.6581 46.4216Z" fill="white"/>
<path fill-rule="evenodd" clip-rule="evenodd" d="M42.6188 48.7249C44.8414 49.7119 45.6823 49.2633 49.1964 49.9512C51.7493 50.4597 52.8306 52.015 52.8306 52.015C52.8306 52.015 48.3854 50.6691 43.4598 51.1476C37.7532 51.6561 33.3682 54.2883 33.3682 54.2883C33.3682 54.2883 33.5183 52.5235 34.8699 51.5963C36.2214 50.6392 40.0058 50.37 42.6188 48.7249Z" fill="black"/>
<path fill-rule="evenodd" clip-rule="evenodd" d="M53.5815 54.4676C53.5815 54.4676 52.1698 52.7926 50.3377 52.5533C48.5056 52.314 46.1329 52.2243 43.5499 52.5533C40.9369 52.8524 36.672 53.9591 35.9512 54.677C35.0501 55.5743 34.4795 57.2194 34.4795 57.2194C34.4795 57.2194 38.1137 54.8863 44.451 54.2283C50.6681 53.5404 53.5815 54.4676 53.5815 54.4676Z" fill="black"/>
<path fill-rule="evenodd" clip-rule="evenodd" d="M53.9424 55.8734C53.9424 55.8734 56.4953 57.3091 55.6243 60.3301C55.1138 62.0948 52.2304 62.1248 52.2304 62.1248C52.2304 62.1248 51.9601 62.9323 50.7587 63.5306C48.6864 64.5774 46.4338 63.2913 42.6795 64.5774C38.9251 65.8636 36.3121 60.7489 39.7361 58.5654C39.5859 57.01 41.0276 55.6341 46.5239 55.335C52.5909 54.9761 53.9424 55.8734 53.9424 55.8734Z" fill="black"/>
<path fill-rule="evenodd" clip-rule="evenodd" d="M52.4401 56.98C53.7616 57.2193 54.122 58.5354 53.7015 59.0439C53.281 59.5524 52.2599 58.6251 48.5656 58.7448C45.2318 58.8644 44.3308 59.6122 43.1894 59.2533C42.3785 58.9841 41.8078 57.9671 42.829 57.4586C43.8502 56.9501 45.382 56.8305 47.0639 56.7108C49.1663 56.5613 50.1274 56.5613 52.4401 56.98Z" fill="white"/>
<path fill-rule="evenodd" clip-rule="evenodd" d="M53.9119 71.7861C53.9119 71.7861 54.6328 72.0852 55.2034 72.2647C55.7741 72.4442 57.0355 72.5937 57.0355 72.5937C57.0355 72.5937 56.9755 73.8799 55.9242 75.6147C54.7829 77.4991 53.5215 77.7683 53.5215 77.7683C53.5215 77.7683 53.8819 75.3455 53.972 74.2986C54.0321 73.2518 53.9119 71.7861 53.9119 71.7861Z" fill="white"/>
<path fill-rule="evenodd" clip-rule="evenodd" d="M37.0626 86.8014C37.0626 86.8014 35.8312 85.3955 35.4407 84.4683C35.2004 83.9299 34.5096 82.0156 34.5096 82.0156C34.5096 82.0156 33.8188 83.1821 33.7588 84.8572C33.7287 86.1433 34.0591 86.9509 34.0591 86.9509C34.0591 86.9509 34.6298 87.3996 35.5008 87.3996C36.3417 87.3697 37.0626 86.8014 37.0626 86.8014Z" fill="white"/>
<path fill-rule="evenodd" clip-rule="evenodd" d="M54.1225 82.5838L51.5695 84.7374L51.6596 86.0834C51.8999 86.4423 52.1101 86.9209 52.1402 87.1003C52.2603 87.7883 53.4617 91.0186 44.2411 91.7066C34.4198 92.4245 31.987 91.7365 30.6955 89.9119C29.0436 87.5789 31.086 85.3655 31.086 85.3655C31.086 85.3655 30.8757 84.0494 30.9057 83.2119C30.9358 82.3744 31.146 81.1182 31.146 81.1182L29.344 81.6865C28.6231 82.6436 28.2627 83.2418 27.7822 84.3485C27.2415 85.545 27.0313 86.2329 26.791 87.5191C27.4217 87.7285 28.2327 88.4164 28.2327 88.4164C27.6921 91.4673 28.3528 93.4414 28.3528 93.4414L30.215 92.4843C30.215 92.4843 30.5754 93.6209 30.9057 94.3088C31.5064 95.5651 32.9481 97.2102 32.9481 97.2102L35.2307 94.6678C35.2307 94.6678 36.2819 95.6847 37.1229 96.253C37.9639 96.8213 39.2253 97.2999 39.2253 97.2999C39.2253 97.2999 39.7659 96.2231 39.9161 95.8044C40.0663 95.4155 40.8772 94.4285 40.8772 94.4285C40.8772 94.4285 41.7783 95.0267 42.6192 95.5053C43.4602 95.9838 45.1722 96.7316 45.1722 96.7316C45.1722 96.7316 45.4124 95.924 45.7428 94.9669C46.0732 94.0097 46.794 93.2919 46.794 93.2919C46.794 93.2919 47.6951 93.5012 48.7463 93.7704C49.7975 94.0396 50.9688 94.6977 50.9688 94.6977L51.8398 91.9758C51.8398 91.9758 53.0712 92.0356 55.8344 92.6936C56.0146 89.2539 54.5129 86.532 54.5129 86.532L55.0836 84.857L54.1225 82.5838Z" fill="white"/>
<path fill-rule="evenodd" clip-rule="evenodd" d="M33.5783 60.9883L33.7886 62.2445L32.3769 63.4709C32.3169 62.8727 32.407 62.4838 32.7073 61.9454C32.9176 61.4968 33.1278 61.2575 33.5783 60.9883Z" fill="black"/>
<path fill-rule="evenodd" clip-rule="evenodd" d="M34.5996 62.9922L35.3805 64.2484L34.029 66.073C33.8187 65.3551 33.7887 64.8766 33.9989 64.1886C34.1491 63.6502 34.2692 63.381 34.5996 62.9922Z" fill="black"/>
<path fill-rule="evenodd" clip-rule="evenodd" d="M36.1612 65.0261L37.2424 66.0132L36.4615 68.1368C36.041 67.5087 35.9209 67.0601 35.9209 66.3123C35.9209 65.8038 35.981 65.4748 36.1612 65.0261Z" fill="black"/>
<path fill-rule="evenodd" clip-rule="evenodd" d="M58.4168 60.4199L58.2666 61.6762L59.7683 62.8427C59.7984 62.2445 59.6782 61.8556 59.3779 61.3472C59.1076 60.8985 58.8673 60.6592 58.4168 60.4199Z" fill="black"/>
<path fill-rule="evenodd" clip-rule="evenodd" d="M57.816 62.5735L57.2754 63.9494L58.9273 65.5047C59.0174 64.757 58.9273 64.3083 58.6269 63.6204C58.3867 63.1418 58.2065 62.9025 57.816 62.5735Z" fill="black"/>
<path fill-rule="evenodd" clip-rule="evenodd" d="M56.4052 64.6372L55.5342 65.8336L56.7656 67.7479C57.0359 67.06 57.0659 66.5814 56.9158 65.8635C56.8257 65.3252 56.7055 65.056 56.4052 64.6372Z" fill="black"/>
<path d="M50.0073 87.6985C49.3465 87.878 48.8059 87.878 48.2052 87.7284C47.2141 87.4592 46.6134 87.1003 46.6134 87.1003C46.6134 87.1003 45.7424 87.7583 43.0093 87.9378C40.2461 88.1472 37.9334 87.9976 37.9334 87.9976C37.9334 87.9976 37.1225 88.536 35.8911 88.6556C35.0801 88.7454 34.059 88.536 33.1579 87.9079C32.9777 87.6985 32.9177 87.5489 32.8275 87.2797C32.7374 87.0105 32.7074 86.5918 32.7074 86.5918C31.7763 87.3994 31.9265 88.4164 32.4071 88.8351C33.7586 90.0615 36.1914 90.3905 38.1437 89.4932C38.1437 89.4932 40.4563 89.7324 42.7389 89.4632C44.0004 89.3137 46.5233 88.6556 46.5233 88.6556C47.2742 89.1342 48.4155 89.194 49.3766 88.7155C49.8872 88.536 50.1274 88.1472 50.0073 87.6985Z" fill="white"/>
<path d="M43.3704 85.7842C43.1601 85.515 43.04 85.3655 42.7997 85.0963C42.199 84.4383 41.6584 84.2588 41.6584 84.2588C41.6584 84.2588 41.1778 84.6775 40.9676 85.0963C40.8475 85.3655 40.6372 85.6347 40.4871 86.0235C40.3068 85.6945 40.1567 85.515 39.9164 85.2159C39.586 84.8869 38.9853 84.4382 38.9853 84.4382C38.9853 84.4382 38.2345 85.0963 38.0242 85.6347C37.844 86.1731 37.7539 86.6517 37.7539 86.6517C37.7539 86.6517 38.3546 86.8012 39.0754 86.8012C40.1266 86.8012 40.5772 86.4423 40.5772 86.4423C40.9676 86.6517 41.4181 86.8012 41.9287 86.8012C42.4994 86.8012 42.9198 86.6517 43.2803 86.3526C43.2803 86.3526 44.3615 86.6517 44.9922 86.532C45.4127 86.4722 45.9834 86.1731 45.9834 86.1731C45.9834 86.1731 45.8332 85.5749 45.653 85.2458C45.4427 84.8271 44.9322 84.2588 44.9322 84.2588C44.9322 84.2588 44.5717 84.3485 43.911 85.0963C43.6407 85.3356 43.5506 85.4552 43.3704 85.7842Z" fill="white"/>
<path fill-rule="evenodd" clip-rule="evenodd" d="M52.5009 70.7091C52.5009 70.7091 49.5575 70.3801 47.8455 70.4998C45.8032 70.6493 41.9287 71.3373 41.9287 71.3373L44.3615 70.081C44.3615 70.081 45.5629 69.4529 47.2148 69.3931C49.2571 69.2734 52.5009 70.7091 52.5009 70.7091Z" fill="white"/>
<path d="M5.46582 23.9885C5.46582 23.9885 5.7962 26.86 6.33682 28.6247C7.08769 31.0176 9.52048 34.248 9.52048 34.248L7.5382 34.3975C7.5382 34.3975 8.19896 35.6538 8.70955 36.4614C9.55052 37.7774 11.4127 39.0636 11.4127 39.0636C11.4127 39.0636 11.5929 37.2989 11.4427 35.5939C11.2625 33.7096 10.1212 31.4663 10.1212 31.4663L12.0734 31.9747C12.0734 31.9747 10.2113 27.6676 8.79965 25.9926L10.842 26.531C10.842 26.531 10.5116 24.1082 8.55938 21.6256C6.15661 18.6046 6.33682 17.468 6.09655 16.78C5.7061 18.3055 5.61599 19.801 5.94637 21.6854C6.12658 22.7921 6.48699 23.3903 6.75731 24.4372C5.7962 24.0484 5.46582 23.9885 5.46582 23.9885Z" fill="white"/>
<path d="M68.0584 33.7993C68.0584 33.7993 68.7192 32.0345 69.1397 30.1801C69.5601 28.2957 69.6803 26.1122 69.6803 26.1122L67.8782 26.6506C67.8782 26.6506 68.4489 23.5099 68.6891 21.5358C68.8693 20.0702 68.7792 17.7372 68.7792 17.7372L67.2475 19.2327C67.3676 18.0363 67.3676 17.5577 67.3676 16.2117C67.3676 14.2675 66.6768 10.9175 66.6768 10.9175C66.6768 10.9175 66.5567 14.9255 65.2652 19.8608C64.214 23.8988 65.4154 29.4921 65.4154 29.4921L67.3676 28.6546C67.3676 28.6546 67.0673 30.1501 67.2174 31.4363C67.3676 32.8122 68.0584 33.7993 68.0584 33.7993Z" fill="white"/>
<path fill-rule="evenodd" clip-rule="evenodd" d="M46.614 78.8449C45.773 77.5887 45.4427 76.5418 45.4427 75.9735C45.2024 76.123 45.1123 76.2726 44.872 76.4222C44.6618 76.5717 44.2713 76.7213 44.2713 76.7213C44.2713 76.7213 43.3402 76.2726 42.8597 75.8838C42.5593 75.6146 42.3791 75.465 42.1088 75.136C42.1389 76.2128 42.3491 77.2597 42.3791 77.4092C42.5593 78.5159 43.1 80.5498 43.1 80.5498C43.1 80.5498 41.2078 80.6695 38.5047 78.9048C37.1231 77.9775 36.132 76.8708 35.5313 75.5248C34.8705 75.8239 34.0596 75.9436 34.0596 75.9436C34.0596 75.9436 35.7715 76.4222 35.5313 79.6226C35.3811 81.7463 36.5224 83.0025 41.4781 83.0923C45.743 83.1521 47.9355 80.849 46.614 78.8449Z" fill="#CC0000"/>
<path fill-rule="evenodd" clip-rule="evenodd" d="M40.5162 72.5637C40.5162 72.5637 40.2459 74.0293 40.396 75.5847C40.5462 77.2298 40.9967 78.4861 40.9967 78.4861C40.9967 78.4861 39.7052 78.0075 38.5039 76.6017C37.5428 75.4651 37.3926 74.7472 37.3926 74.7472C37.3926 74.7472 38.2936 74.2387 38.8342 73.8798C39.495 73.4012 40.5162 72.5637 40.5162 72.5637Z" fill="white"/>
<path fill-rule="evenodd" clip-rule="evenodd" d="M46.8535 85.6646C46.8535 85.6646 47.7846 83.5709 47.9948 82.9129C48.2051 82.2847 48.4153 80.7593 48.4153 80.7593C48.4153 80.7593 49.4966 82.1352 49.6467 83.9298C49.7669 85.3955 49.6167 86.0535 49.6167 86.0535C49.6167 86.0535 48.7157 86.3825 48.145 86.2928C47.5743 86.233 46.8535 85.6646 46.8535 85.6646Z" fill="white"/>
<path d="M45.9229 73.102C45.953 73.3114 46.1932 73.6105 46.4035 73.8797C46.9741 74.6275 47.4847 74.8667 47.4847 74.8667C47.4847 74.8667 48.2055 74.3882 48.4458 73.9096C48.596 73.6105 48.7762 73.1618 48.8062 72.8627C48.9564 73.1618 49.3769 73.6105 49.6172 73.8498C50.0076 74.2386 50.6383 74.5676 50.6383 74.5676C50.6383 74.5676 51.179 74.119 51.4793 73.4609C51.7797 72.8627 51.8698 72.3542 51.8698 72.3542C51.8698 72.3542 51.0288 71.9355 50.4581 71.9654C49.5571 71.9953 48.7161 72.444 48.7161 72.444C48.3257 72.2047 47.7851 72.1449 47.3045 72.1449C46.7339 72.1748 46.3134 72.3243 45.953 72.6833C45.953 72.6833 44.9017 72.3542 44.241 72.4739C43.5802 72.5935 42.7393 73.1917 42.7393 73.1917C42.7393 73.1917 43.0396 73.8199 43.3399 74.1489C43.7604 74.5975 44.6615 74.9864 44.6615 74.9864C44.6615 74.9864 45.0219 74.777 45.4724 74.0592C45.7127 73.6703 45.7727 73.3114 45.9229 73.102Z" fill="white"/>
<path fill-rule="evenodd" clip-rule="evenodd" d="M60.6394 21.7451C60.6394 21.7451 58.6871 25.125 57.9663 26.7701C57.2454 28.4152 56.1342 32.3635 56.1342 32.3635C56.1342 32.3635 55.5635 33.5001 54.7826 34.1581C54.0017 34.8161 52.7703 35.5041 52.7703 35.5041L52.0495 34.7862C52.0495 34.7862 50.5177 35.7434 49.4965 36.2818C48.5354 36.7903 47.0037 37.4483 47.0037 37.4483L46.2228 36.551C46.2228 36.551 45.0214 37.1791 44.1804 37.4782C42.8889 37.9269 40.7565 38.1362 40.7565 38.1362C40.7565 38.1362 38.6541 37.3885 37.4527 36.6108C36.7919 36.192 35.8909 35.4144 35.8909 35.4144L34.8397 35.9827C34.8397 35.9827 33.4281 35.0554 32.6772 34.3376C32.0465 33.7394 31.2055 32.6327 31.2055 32.6327L30.2444 33.3206C30.2444 33.3206 29.6137 32.842 28.5925 31.5858C27.5413 30.2996 27.7215 30.2398 27.7215 30.2398L26.7003 30.7483L25.4989 29.4322L24.6279 28.2058C25.0784 25.9027 25.2286 24.4072 25.2286 21.9545C25.2286 19.5317 24.6279 15.7629 24.6279 15.7629C24.6279 15.7629 29.1631 19.442 42.4384 21.775C55.083 23.9585 60.6394 21.7451 60.6394 21.7451Z" fill="#CC0000"/>
<path fill-rule="evenodd" clip-rule="evenodd" d="M39.7954 7.47778C39.9456 8.13582 41.8678 8.94341 44.3006 9.36217C46.7334 9.78092 48.8058 9.66127 49.1662 9.12288L48.986 10.1099C48.6256 10.6782 46.5532 10.7979 44.1204 10.3492C41.6876 9.93047 39.7354 9.09297 39.6152 8.46484L39.7954 7.47778Z" fill="#CC0000"/>
<path fill-rule="evenodd" clip-rule="evenodd" d="M30.725 28.9537L29.6437 28.5349L29.1932 24.4671L28.5625 28.1162L27.3311 27.6376L28.6526 20.3394L29.7038 20.7581L30.1543 24.7662L30.8151 21.1769L32.0164 21.6554L30.725 28.9537Z" fill="white"/>
<path fill-rule="evenodd" clip-rule="evenodd" d="M35.561 25.813L34.2695 25.3943L34.5398 23.9586L33.7589 23.6894L32.8879 28.5349L33.6989 28.7742L33.9992 26.9796L35.2907 27.3983L34.9303 29.4023L33.819 30.1202L32.3773 29.6715L31.5664 28.3256L32.4975 23.0612L33.5787 22.3135L35.1105 22.822L35.8613 24.138L35.561 25.813Z" fill="white"/>
<path fill-rule="evenodd" clip-rule="evenodd" d="M40.4564 24.2278L41.2674 25.514L41.0872 26.7403L39.7356 26.4113L39.9158 25.3943L39.1349 25.2149L38.8646 26.8899L39.9458 27.2787L40.7568 28.5649L40.3663 30.7783L39.255 31.5859L37.6632 31.1971L36.9424 29.9408L37.1526 28.7444L38.4741 29.0734L38.2939 30.0604L39.0748 30.2399L39.3752 28.5051L38.2939 28.1461L37.483 26.86L37.8434 24.6765L38.9547 23.8689L40.4564 24.2278Z" fill="white"/>
<path fill-rule="evenodd" clip-rule="evenodd" d="M44.6615 26.2318L43.7905 26.1121L42.7392 32.184L41.3877 31.9747L42.4689 25.9028L41.5979 25.7831L41.8082 24.5269L44.8717 25.0054L44.6615 26.2318Z" fill="white"/>
<path fill-rule="evenodd" clip-rule="evenodd" d="M46.6133 26.4412L45.6522 29.8809L46.4932 29.9408L46.6133 26.4412ZM47.6045 32.6926L46.2829 32.6028L46.4031 31.2269L45.3519 31.1073L44.9914 32.4832L43.6699 32.3935L45.8925 25.155L47.9649 25.3046L47.6045 32.6926Z" fill="white"/>
<path fill-rule="evenodd" clip-rule="evenodd" d="M51.8397 26.5907H50.9687L49.8875 32.6626L48.5059 32.6327L49.5871 26.5608H48.7161L48.9263 25.3345H52.0499L51.8397 26.5907Z" fill="white"/>
<path fill-rule="evenodd" clip-rule="evenodd" d="M55.1135 26.3814L53.7919 26.4711L53.5216 28.0564L54.6329 27.9966L54.3926 29.2229L53.2813 29.2827L52.951 31.3167L54.3025 31.2269L54.0622 32.4533L51.3291 32.6327L52.6206 25.3046L55.3237 25.155L55.1135 26.3814Z" fill="white"/>
</g>
<defs>
<clipPath id="clip0_4920_310761">
<rect width="75.5069" height="104" fill="white"/>
</clipPath>
</defs>
</svg>
